<svg width="320" height="32" viewBox="0 0 320 32" fill="none" xmlns="http://www.w3.org/2000/svg">
<path d="M113.024 22.4049L130 5.42871L146.976 22.4049" stroke="#58FF95" stroke-width="4.54633"/>
<rect x="93.0952" y="11.333" width="128.429" height="20.6667" fill="#121212"/>
<path d="M8.31197 31L0.810079 8.39936H5.93795L11.0342 25.9354H11.0975L16.7318 8.39936H21.6698L27.3358 25.9354H27.3991L32.5902 8.39936H37.5282L29.9314 31H24.8035L19.1691 13.6539H19.1058L13.4398 31H8.31197ZM57.3072 23.7197H41.4804C41.5438 24.9225 41.9658 25.946 42.7466 26.7901C43.7595 27.9085 45.2367 28.4677 47.1781 28.4677C49.5205 28.4677 51.1875 27.6658 52.1794 26.062H56.9274C55.0493 29.7761 51.8417 31.6331 47.3047 31.6331C43.7806 31.6331 41.1006 30.7151 39.2647 28.8792C37.7031 27.2965 36.9223 25.2602 36.9223 22.7701C36.9223 19.9846 37.8508 17.7583 39.7078 16.0912C41.586 14.4241 44.0233 13.5905 47.0198 13.5905C50.5017 13.5905 53.1501 14.5613 54.9649 16.5027C56.5264 18.1909 57.3072 20.3855 57.3072 23.0866V23.7197ZM41.4804 20.9342H52.7491C52.4959 19.4148 51.7573 18.2647 50.5334 17.4839C49.5416 16.872 48.3915 16.566 47.0831 16.566C45.8381 16.566 44.7408 16.8614 43.7912 17.4523C42.5883 18.2331 41.8181 19.3937 41.4804 20.9342ZM69.0089 17.1357C67.1097 17.1357 65.6642 17.7055 64.6724 18.845C63.8072 19.8368 63.3746 21.1135 63.3746 22.6751C63.3746 24.2578 63.8072 25.545 64.6724 26.5368C65.6642 27.6975 67.1097 28.2778 69.0089 28.2778C70.9292 28.2778 72.3853 27.6975 73.3771 26.5368C74.2423 25.545 74.6749 24.2578 74.6749 22.6751C74.6749 21.1135 74.2423 19.8368 73.3771 18.845C72.3853 17.7055 70.9292 17.1357 69.0089 17.1357ZM59.1963 31V8.01952H63.5645V16.6293H63.6278C64.8517 14.7301 66.9936 13.7805 70.0535 13.7805C73.0289 13.7805 75.3607 14.7301 77.0489 16.6293C78.505 18.2964 79.233 20.3116 79.233 22.6751C79.233 25.0808 78.505 27.1066 77.0489 28.7526C75.3607 30.6729 73.0289 31.6331 70.0535 31.6331C68.4708 31.6331 67.0042 31.2638 65.6536 30.5252C64.493 29.9132 63.8177 29.3013 63.6278 28.6893H63.5645V31H59.1963Z" fill="#58FF95"/>
<path d="M96.2386 11.9446V18.845H103.867C105.281 18.845 106.304 18.6129 106.938 18.1487C107.655 17.6211 108.014 16.7137 108.014 15.4265C108.014 13.1052 106.748 11.9446 104.215 11.9446H96.2386ZM91.4906 31V8.39936H105.418C107.993 8.39936 109.913 9.11684 111.179 10.5518C112.234 11.7546 112.762 13.3795 112.762 15.4265C112.762 17.3257 112.181 18.9189 111.021 20.2061C109.712 21.6622 107.866 22.3902 105.481 22.3902H96.2386V31H91.4906ZM118.311 22.6118C118.311 24.2367 118.754 25.545 119.641 26.5368C120.654 27.6975 122.152 28.2778 124.136 28.2778C126.119 28.2778 127.617 27.6975 128.63 26.5368C129.517 25.545 129.96 24.2367 129.96 22.6118C129.96 20.9869 129.517 19.6786 128.63 18.6868C127.617 17.5261 126.119 16.9458 124.136 16.9458C122.152 16.9458 120.654 17.5261 119.641 18.6868C118.754 19.6786 118.311 20.9869 118.311 22.6118ZM113.753 22.6118C113.753 20.0584 114.545 17.9798 116.127 16.3761C117.963 14.519 120.633 13.5905 124.136 13.5905C127.639 13.5905 130.308 14.519 132.144 16.3761C133.727 17.9798 134.518 20.0584 134.518 22.6118C134.518 25.1652 133.727 27.2438 132.144 28.8476C130.308 30.7046 127.639 31.6331 124.136 31.6331C120.633 31.6331 117.963 30.7046 116.127 28.8476C114.545 27.2438 113.753 25.1652 113.753 22.6118ZM140.933 31L134.571 14.2236H139.319L143.624 26.5052H143.687L147.707 14.2236H152.265L156.285 26.5052H156.349L160.654 14.2236H165.402L159.039 31H154.101L150.018 19.3515H149.955L145.871 31H140.933ZM186.053 23.7197H170.226C170.29 24.9225 170.712 25.946 171.492 26.7901C172.505 27.9085 173.983 28.4677 175.924 28.4677C178.266 28.4677 179.933 27.6658 180.925 26.062H185.673C183.795 29.7761 180.588 31.6331 176.051 31.6331C172.526 31.6331 169.846 30.7151 168.011 28.8792C166.449 27.2965 165.668 25.2602 165.668 22.7701C165.668 19.9846 166.597 17.7583 168.454 16.0912C170.332 14.4241 172.769 13.5905 175.766 13.5905C179.248 13.5905 181.896 14.5613 183.711 16.5027C185.272 18.1909 186.053 20.3855 186.053 23.0866V23.7197ZM170.226 20.9342H181.495C181.242 19.4148 180.503 18.2647 179.279 17.4839C178.287 16.872 177.137 16.566 175.829 16.566C174.584 16.566 173.487 16.8614 172.537 17.4523C171.334 18.2331 170.564 19.3937 170.226 20.9342ZM187.942 31V14.2236H192.31V17.4839H192.374C193.893 15.015 196.003 13.7805 198.704 13.7805C199.232 13.7805 199.812 13.8332 200.445 13.9387V18.2436C199.58 17.9693 198.652 17.8321 197.66 17.8321C196.288 17.8321 195.117 18.1909 194.146 18.9083C192.922 19.8157 192.31 21.1452 192.31 22.8967V31H187.942ZM201.486 31V8.01952H205.855V16.7559H205.918C207.48 14.7723 209.685 13.7805 212.534 13.7805C217.282 13.7805 219.656 15.7219 219.656 19.6047V31H215.287V20.9975C215.287 18.423 213.884 17.1357 211.077 17.1357C209.727 17.1357 208.577 17.4945 207.627 18.212C206.446 19.0983 205.855 20.3539 205.855 21.9787V31H201.486ZM225.909 22.6118C225.909 24.2367 226.352 25.545 227.238 26.5368C228.251 27.6975 229.749 28.2778 231.733 28.2778C233.717 28.2778 235.215 27.6975 236.228 26.5368C237.114 25.545 237.557 24.2367 237.557 22.6118C237.557 20.9869 237.114 19.6786 236.228 18.6868C235.215 17.5261 233.717 16.9458 231.733 16.9458C229.749 16.9458 228.251 17.5261 227.238 18.6868C226.352 19.6786 225.909 20.9869 225.909 22.6118ZM221.351 22.6118C221.351 20.0584 222.142 17.9798 223.725 16.3761C225.56 14.519 228.23 13.5905 231.733 13.5905C235.236 13.5905 237.905 14.519 239.741 16.3761C241.324 17.9798 242.115 20.0584 242.115 22.6118C242.115 25.1652 241.324 27.2438 239.741 28.8476C237.905 30.7046 235.236 31.6331 231.733 31.6331C228.23 31.6331 225.56 30.7046 223.725 28.8476C222.142 27.2438 221.351 25.1652 221.351 22.6118ZM243.814 25.429V14.2236H248.183V23.783C248.183 25.2602 248.436 26.3258 248.942 26.98C249.596 27.8452 250.789 28.2778 252.519 28.2778C253.722 28.2778 254.809 27.9191 255.779 27.2016C257.003 26.2942 257.615 25.0386 257.615 23.4348V14.2236H261.984V31H257.615V28.6576H257.552C255.99 30.6413 253.785 31.6331 250.936 31.6331C246.188 31.6331 243.814 29.565 243.814 25.429ZM263.552 25.7455H268.3C268.405 27.6869 269.946 28.6576 272.921 28.6576C274.166 28.6576 275.2 28.4994 276.023 28.1828C276.994 27.803 277.479 27.2438 277.479 26.5052C277.479 25.8299 277.163 25.3551 276.53 25.0808C275.833 24.7642 274.335 24.4477 272.035 24.1312C269.081 23.7302 267.108 23.266 266.116 22.7384C264.786 22.0209 264.122 20.7759 264.122 19.0033C264.122 16.9142 265.166 15.4159 267.255 14.5085C268.669 13.8965 270.421 13.5905 272.51 13.5905C278.376 13.5905 281.405 15.5109 281.594 19.3515H277.036C276.783 17.4945 275.2 16.566 272.288 16.566C271.128 16.566 270.199 16.7665 269.503 17.1674C268.827 17.5683 268.49 18.0115 268.49 18.4968C268.49 19.1721 268.733 19.6364 269.218 19.8896C269.724 20.1217 271.022 20.3855 273.111 20.6809C276.445 21.1663 278.651 21.6517 279.727 22.137C281.394 22.8756 282.227 24.1312 282.227 25.9038C282.227 29.7233 279.136 31.6331 272.953 31.6331C266.812 31.6331 263.679 29.6706 263.552 25.7455ZM303.671 23.7197H287.844C287.907 24.9225 288.329 25.946 289.11 26.7901C290.123 27.9085 291.6 28.4677 293.542 28.4677C295.884 28.4677 297.551 27.6658 298.543 26.062H303.291C301.413 29.7761 298.205 31.6331 293.668 31.6331C290.144 31.6331 287.464 30.7151 285.628 28.8792C284.067 27.2965 283.286 25.2602 283.286 22.7701C283.286 19.9846 284.214 17.7583 286.071 16.0912C287.95 14.4241 290.387 13.5905 293.383 13.5905C296.865 13.5905 299.514 14.5613 301.328 16.5027C302.89 18.1909 303.671 20.3855 303.671 23.0866V23.7197ZM287.844 20.9342H299.113C298.859 19.4148 298.121 18.2647 296.897 17.4839C295.905 16.872 294.755 16.566 293.447 16.566C292.202 16.566 291.104 16.8614 290.155 17.4523C288.952 18.2331 288.182 19.3937 287.844 20.9342Z" fill="white"/>
<path d="M312.649 8.79781H310.717V14H310.023V8.79781H308.091V8.15373H312.649V8.79781ZM313.179 8.15373H314.211L316.193 12.7366H316.21L318.208 8.15373H319.215V14H318.522V9.09507H318.505L316.408 14H315.987L313.889 9.09507H313.873V14H313.179V8.15373Z" fill="white"/>
</svg>
