<svg xmlns="http://www.w3.org/2000/svg" xmlns:xlink="http://www.w3.org/1999/xlink" version="1.1" x="0px" y="0px" viewBox="0 0 512 640" style="enable-background:new 0 0 512 512;" xml:space="preserve"><g><circle cx="376" cy="88" r="24"/><circle cx="304" cy="88" r="24"/><path d="M240,72H120c-8.837,0-16,7.164-16,16s7.163,16,16,16h120c8.837,0,16-7.164,16-16S248.837,72,240,72z"/><path d="M240,280H120c-8.837,0-16,7.164-16,16s7.163,16,16,16h120c8.837,0,16-7.164,16-16S248.837,280,240,280z"/><path d="M496,448H304v-16c0-8.84-7.16-16-16-16h-16v-32h176c8.84,0,16-7.16,16-16V224c0-8.84-7.16-16-16-16H272v-32h176   c8.84,0,16-7.16,16-16V16c0-8.84-7.16-16-16-16H64c-8.84,0-16,7.16-16,16v144c0,8.84,7.16,16,16,16h176v32H64   c-8.84,0-16,7.16-16,16v144c0,8.84,7.16,16,16,16h176v32h-16c-8.84,0-16,7.16-16,16v16H16c-8.84,0-16,7.16-16,16   c0,8.84,7.16,16,16,16h192v16c0,8.84,7.16,16,16,16h64c8.84,0,16-7.16,16-16v-16h192c8.84,0,16-7.16,16-16   C512,455.16,504.84,448,496,448z M80,144V32h352v112H80z M80,352V240h352v112H80z M272,480h-32v-32h32V480z"/><circle cx="304" cy="296" r="24"/><circle cx="376" cy="296" r="24"/></g><text x="0" y="527" fill="#000000" font-size="5px" font-weight="bold" font-family="'Helvetica Neue', Helvetica, Arial-Unicode, Arial, Sans-serif">Created by Oleg Balan</text><text x="0" y="532" fill="#000000" font-size="5px" font-weight="bold" font-family="'Helvetica Neue', Helvetica, Arial-Unicode, Arial, Sans-serif">from the Noun Project</text></svg>