<svg xmlns="http://www.w3.org/2000/svg" xmlns:xlink="http://www.w3.org/1999/xlink" version="1.1" x="0px" y="0px" viewBox="0 0 66 82.5" style="enable-background:new 0 0 66 66;" xml:space="preserve"><path d="M43.76,58.96c-0.4,0-0.73,0.33-0.73,0.73v2.11c0,0.93-0.75,1.68-1.68,1.68H4.57c-0.93,0-1.68-0.75-1.68-1.68V14.86  c0-0.93,0.75-1.68,1.68-1.68h7.12v1.26c0,0.87,0.71,1.57,1.57,1.57h19.4c0.87,0,1.57-0.71,1.57-1.57v-1.26h7.12  c0.93,0,1.68,0.75,1.68,1.68V25.5c0,0.4,0.33,0.73,0.73,0.73s0.73-0.33,0.73-0.73V14.86c0-1.73-1.41-3.14-3.14-3.14h-7.12v-1.5  c0-0.87-0.71-1.57-1.57-1.57H28.7V6.79c0-3.16-2.57-5.74-5.74-5.74s-5.74,2.57-5.74,5.74v1.85h-3.96c-0.87,0-1.57,0.71-1.57,1.57  v1.5H4.57c-1.73,0-3.14,1.41-3.14,3.14v46.95c0,1.73,1.41,3.14,3.14,3.14h36.79c1.73,0,3.14-1.41,3.14-3.14v-2.11  C44.49,59.29,44.17,58.96,43.76,58.96z M18.69,6.79c0-2.36,1.92-4.27,4.27-4.27s4.27,1.92,4.27,4.27v1.85h-8.55V6.79z M13.15,10.22  c0-0.06,0.05-0.11,0.11-0.11h4.69h10.01h4.69c0.06,0,0.11,0.05,0.11,0.11v4.22c0,0.06-0.05,0.11-0.11,0.11h-19.4  c-0.06,0-0.11-0.05-0.11-0.11V10.22z"/><path d="M8.78,28.79h4.96c1.12,0,2.03-0.91,2.03-2.02V21.8c0-1.12-0.91-2.02-2.03-2.02H8.78c-1.12,0-2.03,0.91-2.03,2.02v4.96  C6.76,27.88,7.67,28.79,8.78,28.79z M8.22,21.8c0-0.31,0.25-0.56,0.56-0.56h4.96c0.31,0,0.56,0.25,0.56,0.56v4.96  c0,0.31-0.25,0.56-0.56,0.56H8.78c-0.31,0-0.56-0.25-0.56-0.56V21.8z"/><path d="M39.16,22.47c0-0.4-0.33-0.73-0.73-0.73H20.81c-0.4,0-0.73,0.33-0.73,0.73s0.33,0.73,0.73,0.73h17.62  C38.83,23.21,39.16,22.88,39.16,22.47z"/><path d="M34.01,26.09c0-0.4-0.33-0.73-0.73-0.73H20.81c-0.4,0-0.73,0.33-0.73,0.73c0,0.4,0.33,0.73,0.73,0.73h12.47  C33.68,26.82,34.01,26.5,34.01,26.09z"/><path d="M6.76,38.96c0,1.12,0.91,2.02,2.03,2.02h4.96c1.12,0,2.03-0.91,2.03-2.02V34c0-1.12-0.91-2.02-2.03-2.02H8.78  c-1.12,0-2.03,0.91-2.03,2.02V38.96z M8.22,34c0-0.31,0.25-0.56,0.56-0.56h4.96c0.31,0,0.56,0.25,0.56,0.56v4.96  c0,0.31-0.25,0.56-0.56,0.56H8.78c-0.31,0-0.56-0.25-0.56-0.56V34z"/><path d="M26.56,34.67c0-0.4-0.33-0.73-0.73-0.73h-5.03c-0.4,0-0.73,0.33-0.73,0.73s0.33,0.73,0.73,0.73h5.03  C26.24,35.4,26.56,35.08,26.56,34.67z"/><path d="M24.36,39.02c0.4,0,0.73-0.33,0.73-0.73s-0.33-0.73-0.73-0.73h-3.56c-0.4,0-0.73,0.33-0.73,0.73s0.33,0.73,0.73,0.73H24.36z  "/><path d="M10.25,25.47c0.14,0.17,0.35,0.25,0.55,0.25c0.17,0,0.34-0.06,0.47-0.17l1.63-1.39c0.31-0.26,0.34-0.72,0.08-1.03  c-0.26-0.31-0.73-0.34-1.03-0.08l-1.07,0.92l-0.21-0.24c-0.26-0.31-0.73-0.34-1.03-0.08c-0.31,0.26-0.34,0.73-0.08,1.03L10.25,25.47  z"/><path d="M10.25,37.65c0.14,0.17,0.35,0.25,0.56,0.25c0.17,0,0.34-0.06,0.47-0.18l1.63-1.39c0.31-0.26,0.34-0.72,0.08-1.03  c-0.26-0.31-0.73-0.34-1.03-0.08l-1.07,0.92l-0.21-0.24c-0.26-0.31-0.72-0.34-1.03-0.08c-0.31,0.26-0.34,0.72-0.08,1.03L10.25,37.65  z"/><path d="M49.7,35.88c-3.85-3.85-10.11-3.85-13.95,0c-3.85,3.85-3.85,10.11,0,13.95c1.92,1.92,4.44,2.88,6.97,2.88  c2.53,0,5.06-0.96,6.98-2.89C53.55,45.98,53.55,39.72,49.7,35.88z M48.67,48.79c-3.27,3.28-8.6,3.28-11.88,0.01  c-3.28-3.28-3.28-8.61,0-11.88c1.64-1.64,3.79-2.45,5.94-2.45c2.15,0,4.31,0.82,5.94,2.46C51.94,40.19,51.94,45.51,48.67,48.79z"/><path d="M62.87,54.76c-1.06-1.06-4.29-3.38-7.44-5.02c2.97-5.48,2.14-12.48-2.48-17.1c-5.64-5.64-14.82-5.64-20.45-0.01  c-5.64,5.64-5.64,14.82,0,20.46c2.82,2.82,6.51,4.22,10.21,4.22c2.37,0,4.75-0.59,6.89-1.75c1.64,3.15,3.97,6.38,5.03,7.44  c1.13,1.13,2.62,1.7,4.11,1.7c1.49,0,2.99-0.57,4.13-1.71C65.14,60.72,65.14,57.03,62.87,54.76z M33.54,52.05  c-2.46-2.46-3.81-5.72-3.81-9.2s1.35-6.74,3.81-9.2c2.53-2.53,5.86-3.8,9.19-3.8c3.33,0,6.66,1.27,9.2,3.8  c5.06,5.06,5.06,13.31-0.01,18.37C46.85,57.11,38.6,57.11,33.54,52.05z M61.84,61.96c-1.7,1.7-4.47,1.71-6.17,0.01  c-1-1-3.24-4.12-4.81-7.17c0.74-0.5,1.44-1.07,2.1-1.72c0.65-0.65,1.22-1.35,1.72-2.09c3.04,1.57,6.16,3.81,7.17,4.81  C63.54,57.49,63.54,60.26,61.84,61.96z"/><path d="M6.76,58.2c0,0.92,0.75,1.68,1.67,1.68h15.86c0.92,0,1.67-0.75,1.67-1.68v-5.27c0-0.92-0.75-1.68-1.67-1.68H8.43  c-0.92,0-1.67,0.75-1.67,1.68V58.2z M8.22,52.93c0-0.12,0.1-0.21,0.21-0.21h15.86c0.12,0,0.21,0.1,0.21,0.21v5.27  c0,0.12-0.1,0.21-0.21,0.21H8.43c-0.12,0-0.21-0.1-0.21-0.21V52.93z"/><path d="M48.57,38.79c-0.38-0.44-0.92-0.71-1.51-0.75c-0.59-0.05-1.15,0.15-1.61,0.55l-4.01,3.74l-0.13-0.16  c-0.38-0.45-0.91-0.72-1.5-0.77c-0.58-0.05-1.15,0.13-1.6,0.51c-0.45,0.38-0.72,0.91-0.77,1.49c-0.05,0.58,0.13,1.15,0.51,1.6  l1.58,1.89c0.38,0.44,0.93,0.72,1.51,0.77c0.05,0,0.11,0.01,0.16,0.01c0.14,0,0.28-0.01,0.42-0.04c0,0,0,0,0,0  c0.37-0.07,0.72-0.25,1.03-0.51l5.69-5.23C49.27,41.09,49.37,39.7,48.57,38.79z M47.38,40.79l-5.69,5.23  c-0.1,0.08-0.21,0.14-0.34,0.17c-0.07,0.01-0.13,0.02-0.2,0.01c-0.2-0.02-0.38-0.11-0.5-0.25l-1.58-1.89  c-0.13-0.15-0.19-0.34-0.17-0.53c0.02-0.19,0.11-0.37,0.26-0.5c0.13-0.11,0.3-0.17,0.47-0.17c0.02,0,0.04,0,0.06,0  c0.2,0.02,0.37,0.11,0.49,0.25l0.61,0.75c0.13,0.16,0.32,0.25,0.52,0.27c0.2,0.01,0.4-0.06,0.55-0.2l4.57-4.26  c0.15-0.13,0.34-0.19,0.53-0.18c0.2,0.01,0.37,0.1,0.5,0.25C47.73,40.05,47.7,40.52,47.38,40.79z"/><text x="0" y="81" fill="#000000" font-size="5px" font-weight="bold" font-family="'Helvetica Neue', Helvetica, Arial-Unicode, Arial, Sans-serif">Created by Candy Design</text><text x="0" y="86" fill="#000000" font-size="5px" font-weight="bold" font-family="'Helvetica Neue', Helvetica, Arial-Unicode, Arial, Sans-serif">from the Noun Project</text></svg>